<svg width="102" height="35" viewBox="0 0 102 35" fill="none" xmlns="http://www.w3.org/2000/svg">
<path d="M24.325 17.5C24.325 21.5455 21.0455 24.825 17 24.825C12.9545 24.825 9.675 21.5455 9.675 17.5C9.675 13.4545 12.9545 10.175 17 10.175C21.0455 10.175 24.325 13.4545 24.325 17.5Z" stroke="white" stroke-width="6.6"/>
<path d="M40.375 15.375C40.375 14.7882 40.8507 14.3125 41.4375 14.3125H60.5625C61.1493 14.3125 61.625 14.7882 61.625 15.375V19.625C61.625 20.2118 61.1493 20.6875 60.5625 20.6875H41.4375C40.8507 20.6875 40.375 20.2118 40.375 19.625V15.375Z" fill="white"/>
<path d="M92.325 17.5C92.325 21.5455 89.0455 24.825 85 24.825C80.9545 24.825 77.675 21.5455 77.675 17.5C77.675 13.4545 80.9545 10.175 85 10.175C89.0455 10.175 92.325 13.4545 92.325 17.5Z" stroke="white" stroke-width="6.6"/>
</svg>
