<svg width="102" height="34" viewBox="0 0 102 34" fill="none" xmlns="http://www.w3.org/2000/svg">
<path d="M27.625 17C27.625 22.868 22.868 27.625 17 27.625C11.132 27.625 6.375 22.868 6.375 17C6.375 11.132 11.132 6.375 17 6.375C22.868 6.375 27.625 11.132 27.625 17Z" fill="white"/>
<path d="M51 23.375C54.5208 23.375 57.375 20.5208 57.375 17H61.625C61.625 22.868 56.868 27.625 51 27.625C45.132 27.625 40.375 22.868 40.375 17H44.625C44.625 20.5208 47.4792 23.375 51 23.375Z" fill="white"/>
<path d="M95.625 17C95.625 22.868 90.868 27.625 85 27.625C79.132 27.625 74.375 22.868 74.375 17C74.375 11.132 79.132 6.375 85 6.375C90.868 6.375 95.625 11.132 95.625 17Z" fill="white"/>
</svg>
