<svg width="102" height="34" viewBox="0 0 102 34" fill="none" xmlns="http://www.w3.org/2000/svg">
<path d="M29.75 12.6031C29.75 8.71718 26.6005 5.56873 22.7156 5.56873C20.3574 5.56873 18.2763 6.73233 17 8.51135C15.7237 6.73233 13.6416 5.56873 11.2844 5.56873C7.39949 5.56873 4.25 8.71718 4.25 12.6031C4.25 13.1523 4.3193 13.6881 4.43928 14.2011C5.41671 20.2694 12.1635 26.6739 17 28.4312C21.8354 26.6739 28.5843 20.2694 29.5586 14.2032C29.6797 13.6881 29.75 13.1523 29.75 12.6031Z" fill="white"/>
<path d="M51 23.375C54.5208 23.375 57.375 20.5208 57.375 17H61.625C61.625 22.868 56.868 27.625 51 27.625C45.132 27.625 40.375 22.868 40.375 17H44.625C44.625 20.5208 47.4792 23.375 51 23.375Z" fill="white"/>
<path d="M97.75 12.6031C97.75 8.71718 94.6005 5.56873 90.7156 5.56873C88.3574 5.56873 86.2763 6.73233 85 8.51135C83.7237 6.73233 81.6416 5.56873 79.2844 5.56873C75.3995 5.56873 72.25 8.71718 72.25 12.6031C72.25 13.1523 72.3193 13.6881 72.4393 14.2011C73.4167 20.2694 80.1635 26.6739 85 28.4312C89.8354 26.6739 96.5843 20.2694 97.5586 14.2032C97.6797 13.6881 97.75 13.1523 97.75 12.6031Z" fill="white"/>
</svg>
