<svg width="102" height="34" viewBox="0 0 102 34" fill="none" xmlns="http://www.w3.org/2000/svg">
<path d="M17 23.375C20.5208 23.375 23.375 20.5208 23.375 17H27.625C27.625 22.868 22.868 27.625 17 27.625C11.132 27.625 6.375 22.868 6.375 17H10.625C10.625 20.5208 13.4792 23.375 17 23.375Z" fill="white"/>
<path d="M40.375 22.0469C40.375 21.4601 40.8507 20.9844 41.4375 20.9844H60.5625C61.1493 20.9844 61.625 21.4601 61.625 22.0469V26.2969C61.625 26.8837 61.1493 27.3594 60.5625 27.3594H41.4375C40.8507 27.3594 40.375 26.8837 40.375 26.2969V22.0469Z" fill="white"/>
<path d="M85 23.375C88.5208 23.375 91.375 20.5208 91.375 17H95.625C95.625 22.868 90.868 27.625 85 27.625C79.132 27.625 74.375 22.868 74.375 17H78.625C78.625 20.5208 81.4792 23.375 85 23.375Z" fill="white"/>
</svg>
